<svg id="Capa_1" enable-background="new 0 0 497 497" height="512" viewBox="0 0 497 497" width="512" xmlns="http://www.w3.org/2000/svg"><path d="m248.5 0c-112.496 0-203.691 91.196-203.691 203.691v244.581c0 17.747 9.792 34.046 25.461 42.379 15.919 8.466 35.004 8.466 50.923 0s35.004-8.466 50.923 0c15.919 8.466 35.004 8.466 50.923 0 15.919-8.466 35.004-8.466 50.923 0 15.919 8.466 35.004 8.466 50.923 0 15.919-8.466 35.004-8.466 50.923 0 15.919 8.466 35.004 8.466 50.923 0 15.669-8.333 25.461-24.632 25.461-42.379v-244.581c-.001-112.495-91.196-203.691-203.692-203.691z" fill="#a8e1f6"/><path d="m110.27 490.651c-15.669-8.333-25.461-24.632-25.461-42.379v-244.581c0-105.747 80.584-192.664 183.691-202.713-6.581-.641-13.251-.978-20-.978-112.496 0-203.691 91.196-203.691 203.691v244.581c0 17.747 9.792 34.046 25.461 42.379 14.137 7.518 30.766 8.343 45.461 2.508-1.852-.735-3.679-1.56-5.461-2.508z" fill="#34b6e2"/><ellipse cx="135.502" cy="264.752" fill="#ffa1ac" rx="41.694" ry="33.203"/><ellipse cx="361.498" cy="264.752" fill="#ffa1ac" rx="41.694" ry="33.203"/><ellipse cx="248.5" cy="239.24" fill="#5c576e" rx="22.132" ry="24.766"/><g fill="#423e4f"><path d="m142.472 232.185c-4.142 0-7.5-3.358-7.5-7.5v-16.172c0-4.142 3.358-7.5 7.5-7.5s7.5 3.358 7.5 7.5v16.172c0 4.142-3.358 7.5-7.5 7.5z"/><path d="m354.528 232.185c-4.143 0-7.5-3.358-7.5-7.5v-16.172c0-4.142 3.357-7.5 7.5-7.5s7.5 3.358 7.5 7.5v16.172c0 4.142-3.357 7.5-7.5 7.5z"/></g></svg>